
<svg xmlns:xlink="http://www.w3.org/1999/xlink" width="70px" height="24px" viewBox="0 0 70 24" version="1.1" xmlns="http://www.w3.org/2000/svg">
    <!-- Generator: Sketch 41.2 (35397) - http://www.bohemiancoding.com/sketch -->
    <desc>Created with Sketch.</desc>
    <defs></defs>
    <g id="Group-2" stroke="none" stroke-width="1" fill="none" fill-rule="evenodd">
        <circle id="Oval-Copy" fill="#3D6BED" cx="12" cy="12" r="12"></circle>
        <path d="M8,7.99539757 C8,7.44565467 8.44386482,7 9,7 L9,7 C9.55228475,7 10,7.4556644 10,7.99539757 L10,16.0046024 C10,16.5543453 9.55613518,17 9,17 L9,17 C8.44771525,17 8,16.5443356 8,16.0046024 L8,7.99539757 Z" id="Rectangle-5" fill="#FFFFFF"></path>
        <path d="M14,7.99539757 C14,7.44565467 14.4438648,7 15,7 L15,7 C15.5522847,7 16,7.4556644 16,7.99539757 L16,16.0046024 C16,16.5543453 15.5561352,17 15,17 L15,17 C14.4477153,17 14,16.5443356 14,16.0046024 L14,7.99539757 Z" id="Rectangle-5-Copy" fill="#FFFFFF"></path>
        <path d="M34,6.328 L34,17 L35.632,17 L35.632,12.664 L36.368,12.664 C37.152,12.664 38.128,12.552 38.976,11.832 C39.856,11.08 40.016,10.12 40.016,9.496 C40.016,8.52 39.584,7.496 38.688,6.904 C37.92,6.392 37.008,6.328 36.352,6.328 L34,6.328 Z M35.632,7.832 L36.352,7.832 C38.208,7.832 38.448,8.888 38.448,9.48 C38.448,10.472 37.776,11.16 36.368,11.16 L35.632,11.16 L35.632,7.832 Z M46.32,11.048 C45.68,10.216 44.816,10.088 44.32,10.088 C42.544,10.088 41.04,11.432 41.04,13.624 C41.04,15.48 42.224,17.208 44.304,17.208 C44.784,17.208 45.632,17.096 46.32,16.296 L46.32,17 L47.888,17 L47.888,10.264 L46.32,10.264 L46.32,11.048 Z M44.512,11.496 C45.504,11.496 46.416,12.2 46.416,13.672 C46.416,15.08 45.504,15.8 44.512,15.8 C43.376,15.8 42.64,14.824 42.64,13.656 C42.64,12.456 43.376,11.496 44.512,11.496 Z M49.872,10.264 L49.872,14.168 C49.872,15.032 49.968,15.752 50.592,16.376 C51.2,17 52.032,17.208 52.72,17.208 C53.472,17.208 54.304,16.984 54.912,16.376 C55.536,15.752 55.632,15.032 55.632,14.168 L55.632,10.264 L54.064,10.264 L54.064,14.12 C54.064,14.52 54.048,14.984 53.776,15.336 C53.568,15.608 53.2,15.8 52.752,15.8 C52.304,15.8 51.936,15.608 51.728,15.336 C51.456,14.984 51.44,14.52 51.44,14.12 L51.44,10.264 L49.872,10.264 Z M61.728,11.272 C61.488,10.84 61.184,10.584 60.96,10.44 C60.576,10.184 60.192,10.088 59.712,10.088 C58.88,10.088 58.368,10.408 58.064,10.728 C57.712,11.096 57.504,11.624 57.504,12.168 C57.504,12.6 57.632,12.968 57.984,13.304 C58.24,13.56 58.608,13.736 58.912,13.88 L59.488,14.152 C59.744,14.264 59.968,14.376 60.16,14.568 C60.304,14.728 60.368,14.888 60.368,15.08 C60.368,15.272 60.272,15.48 60.144,15.608 C60,15.752 59.744,15.832 59.504,15.832 C59.136,15.832 58.912,15.672 58.816,15.576 C58.672,15.448 58.528,15.16 58.448,14.936 L57.168,15.544 C57.328,16.024 57.648,16.488 58.032,16.776 C58.512,17.144 59.056,17.208 59.488,17.208 C60.192,17.208 60.848,17.032 61.376,16.456 C61.744,16.056 61.968,15.528 61.968,14.92 C61.968,14.456 61.84,14.04 61.472,13.672 C61.216,13.4 60.88,13.224 60.528,13.048 L59.728,12.648 C59.392,12.472 59.296,12.44 59.2,12.376 C59.056,12.28 58.976,12.168 58.976,11.992 C58.976,11.848 59.04,11.72 59.12,11.64 C59.216,11.544 59.376,11.464 59.6,11.464 C60.096,11.464 60.4,11.784 60.56,12.04 L61.728,11.272 Z M68.096,14.728 C67.952,14.984 67.744,15.256 67.472,15.464 C67.152,15.704 66.832,15.8 66.4,15.8 C66.016,15.8 65.568,15.736 65.2,15.368 C64.864,15.032 64.656,14.488 64.624,14.008 L69.456,14.008 L69.456,13.816 C69.456,13.112 69.376,11.864 68.512,10.968 C68.112,10.552 67.424,10.088 66.352,10.088 C65.392,10.088 64.656,10.44 64.096,11 C63.392,11.72 63.024,12.728 63.024,13.768 C63.024,14.776 63.376,15.704 64.016,16.344 C64.656,16.984 65.392,17.208 66.288,17.208 C67.008,17.208 67.728,17.048 68.272,16.696 C68.704,16.424 69.12,15.976 69.408,15.464 L68.096,14.728 Z M64.736,12.728 C64.816,12.392 64.992,12.072 65.216,11.864 C65.424,11.656 65.776,11.432 66.32,11.432 C66.832,11.432 67.168,11.624 67.376,11.816 C67.616,12.04 67.792,12.36 67.856,12.728 L64.736,12.728 Z" id="Pause" fill="#3D6BED"></path>
    </g>
</svg>
