
<svg xmlns:xlink="http://www.w3.org/1999/xlink" width="61px" height="24px" viewBox="0 0 61 24" version="1.1" xmlns="http://www.w3.org/2000/svg">
    <!-- Generator: Sketch 41.2 (35397) - http://www.bohemiancoding.com/sketch -->
    <desc>Created with Sketch.</desc>
    <defs></defs>
    <g id="Group-2" stroke="none" stroke-width="1" fill="none" fill-rule="evenodd">
        <circle id="Oval" fill="#3D6BED" cx="12" cy="12" r="12"></circle>
        <path d="M17.0825017,12.0073421 C17.3222184,12.1413482 17.3226655,12.358365 17.0825017,12.4926211 L9.43404541,16.7682509 C9.19432875,16.902257 9,16.7941235 9,16.5123625 L9,7.98760074 C9,7.7122714 9.19388157,7.59745628 9.43404541,7.73171235 L17.0825017,12.0073421 Z" id="Triangle" fill="#FFFFFF"></path>
        <path d="M34,6.328 L34,17 L35.632,17 L35.632,12.664 L36.368,12.664 C37.152,12.664 38.128,12.552 38.976,11.832 C39.856,11.08 40.016,10.12 40.016,9.496 C40.016,8.52 39.584,7.496 38.688,6.904 C37.92,6.392 37.008,6.328 36.352,6.328 L34,6.328 Z M35.632,7.832 L36.352,7.832 C38.208,7.832 38.448,8.888 38.448,9.48 C38.448,10.472 37.776,11.16 36.368,11.16 L35.632,11.16 L35.632,7.832 Z M41.392,5.336 L41.392,17 L42.96,17 L42.96,5.336 L41.392,5.336 Z M49.872,11.048 C49.232,10.216 48.368,10.088 47.872,10.088 C46.096,10.088 44.592,11.432 44.592,13.624 C44.592,15.48 45.776,17.208 47.856,17.208 C48.336,17.208 49.184,17.096 49.872,16.296 L49.872,17 L51.44,17 L51.44,10.264 L49.872,10.264 L49.872,11.048 Z M48.064,11.496 C49.056,11.496 49.968,12.2 49.968,13.672 C49.968,15.08 49.056,15.8 48.064,15.8 C46.928,15.8 46.192,14.824 46.192,13.656 C46.192,12.456 46.928,11.496 48.064,11.496 Z M52.928,20.664 L54.688,20.664 L60.048,10.264 L58.288,10.264 L56.336,14.2 L54.416,10.264 L52.528,10.264 L55.408,15.944 L52.928,20.664 Z" id="Play" fill="#3D6BED"></path>
    </g>
</svg>
