<svg xmlns:xlink="http://www.w3.org/1999/xlink" width="82px" height="32px" viewBox="0 0 82 32" version="1.1" xmlns="http://www.w3.org/2000/svg">
    <!-- Generator: Sketch 41.2 (35397) - http://www.bohemiancoding.com/sketch -->
    <desc>Created with Sketch.</desc>
    <defs></defs>
    <polyline id="Fill-1" stroke="none" fill="#FFFFFF" fill-rule="evenodd" points="16.5001045 29 2 14.5001045 4.20766453 12.29244 6.46423964 11.2899822 7.78378008 8.71632443 10.3572288 7.48499023 11.6767693 4.82333523 14.3910972 3.8737594 15.4905401 1.00956445 16.5001045 0 31 14.5001045 16.5001045 29"></polyline>
    <path d="M76.9488205,13.08561 L70.0511795,13.08561 C69.9812242,13.08561 69.911702,13.1136685 69.8621052,13.1619797 C69.8127249,13.2102909 69.7837032,13.278011 69.7837032,13.346364 L69.7837032,18.653425 C69.7837032,18.721989 69.8127249,18.7894981 69.8621052,18.8378093 C69.911702,18.8861205 69.9812242,18.91439 70.0511795,18.91439 L76.9488205,18.91439 C77.0189924,18.91439 77.0885146,18.8861205 77.1381114,18.8378093 C77.1877083,18.7894981 77.2165134,18.721989 77.2165134,18.653425 L77.2165134,13.346364 C77.2165134,13.278011 77.1877083,13.2102909 77.1381114,13.1619797 C77.0885146,13.1136685 77.0189924,13.08561 76.9488205,13.08561 Z M79.5984606,11 C79.7035019,11 79.8081101,11.0421932 79.882397,11.1145545 C79.956684,11.1869159 80,11.2886015 80,11.391131 L80,20.608658 C80,20.7111875 79.956684,20.8130841 79.882397,20.8852345 C79.8081101,20.9575958 79.7035019,21 79.5984606,21 L67.4015394,21 C67.2964981,21 67.1921065,20.9575958 67.117603,20.8852345 C67.043316,20.8130841 67,20.7111875 67,20.608658 L67,11.391131 C67,11.2886015 67.043316,11.1869159 67.117603,11.1145545 C67.1921065,11.0421932 67.2964981,11 67.4015394,11 L79.5984606,11 L79.5984606,11 Z" id="Fill-2" stroke="none" fill="#1F1F1D" fill-rule="evenodd"></path>
    <path d="M65.7322865,11 L53.4014679,11 C53.2964328,11 53.1918299,11.0421044 53.1177002,11.1145239 C53.0433544,11.1869434 53.00013,11.2886255 53.00013,11.3911497 L53.00013,12.6944906 C53.00013,12.7970148 53.0433544,12.8986969 53.1177002,12.9711164 C53.1918299,13.0435359 53.2964328,13.0856403 53.4014679,13.0856403 L60.6566704,13.0856403 L53.0688567,20.5646407 C53.0228228,20.6143239 52.9979688,20.6816909 53.00013,20.7482158 C53.0025074,20.8149513 53.0325483,20.880213 53.081824,20.9267384 C53.1308836,20.9732637 53.1991781,21 53.2676886,21 L65.5985072,21 C65.7035423,21 65.8081452,20.9576851 65.882491,20.8854761 C65.9568368,20.8130566 65.999845,20.711164 65.999845,20.6088503 L65.999845,19.3055094 C65.999845,19.2029852 65.9568368,19.1010926 65.882491,19.0286731 C65.8081452,18.9564641 65.7035423,18.9143597 65.5985072,18.9143597 L58.3430886,18.9143597 L65.9311184,11.4351487 C65.9771523,11.3856761 66.0022224,11.3183091 65.999845,11.2515737 C65.9972516,11.1850487 65.9676429,11.1193659 65.9183672,11.0732616 C65.8690915,11.0267363 65.800797,11 65.7322865,11" id="Fill-3" stroke="none" fill="#1F1F1D" fill-rule="evenodd"></path>
    <path d="M49,11.3911392 C49,11.2888186 49.0466817,11.1871308 49.1267408,11.114557 C49.2070334,11.0421941 49.3195363,11 49.4327394,11 L51.5670272,11 C51.6806971,11 51.7932,11.0421941 51.8732592,11.114557 C51.9533183,11.1871308 52,11.2888186 52,11.3911392 L52,20.6088608 C52,20.7116034 51.9533183,20.8132911 51.8732592,20.885443 C51.7932,20.9580169 51.6806971,21 51.5670272,21 L49.4327394,21 C49.3195363,21 49.2070334,20.9580169 49.1267408,20.885443 C49.0466817,20.8132911 49,20.7116034 49,20.6088608 L49,11.3911392" id="Fill-4" stroke="none" fill="#1F1F1D" fill-rule="evenodd"></path>
    <path d="M37.7833164,18.4947257 L37.7833164,17.0335443 L47.5986705,17.0335443 C47.703497,17.0335443 47.8078903,16.9915612 47.8823951,16.9189873 C47.9568999,16.8468354 48,16.7451477 48,16.642616 L48,15.3390295 C48,15.2367089 47.9568999,15.1350211 47.8823951,15.0624473 C47.8078903,14.9900844 47.703497,14.9478903 47.5986705,14.9478903 L37.7833164,14.9478903 L37.7833164,13.6662447 L37.7800676,13.350211 C37.7800676,13.2818565 37.8086567,13.2139241 37.8584709,13.1658228 C37.907852,13.1175105 37.9775919,13.0894515 38.047765,13.0894515 L38.3522816,13.085865 L47.5986705,13.085865 C47.703497,13.085865 47.8078903,13.0434599 47.8823951,12.971308 C47.9568999,12.8987342 48,12.7972574 48,12.6947257 L48,11.3911392 C48,11.2888186 47.9568999,11.1871308 47.8823951,11.114557 C47.8078903,11.0421941 47.703497,11 47.5986705,11 L35.4013295,11 C35.296503,11 35.1918931,11.0421941 35.1176049,11.114557 C35.0431001,11.1871308 35,11.2888186 35,11.3911392 L35,20.6088608 C35,20.7116034 35.0431001,20.8132911 35.1176049,20.885443 C35.1918931,20.9580169 35.296503,21 35.4013295,21 L47.5986705,21 C47.703497,21 47.8078903,20.9580169 47.8823951,20.885443 C47.9568999,20.8132911 48,20.7116034 48,20.6088608 L48,19.3056962 C48,19.2029536 47.9568999,19.1012658 47.8823951,19.0291139 C47.8078903,18.9565401 47.703497,18.914557 47.5986705,18.914557 L38.3288906,18.914557 L38.0514469,18.9088608 C37.9812738,18.9088608 37.9119671,18.8808017 37.8621528,18.8322785 C37.8125552,18.7839662 37.7837496,18.7164557 37.7837496,18.6478903 L37.7833164,18.4947257" id="Fill-5" stroke="none" fill="#1F1F1D" fill-rule="evenodd"></path>
    <path d="M81.0001069,12.9115101 C80.4965267,12.9115101 80.0884899,12.5034733 80.0884899,12.0001069 C80.0884899,11.4965267 80.4965267,11.0882762 81.0001069,11.0882762 C81.5034733,11.0882762 81.9115101,11.4965267 81.9115101,12.0001069 C81.9115101,12.5034733 81.5034733,12.9115101 81.0001069,12.9115101 Z M81.0001069,11 C80.4477931,11 80,11.4477931 80,12.0001069 C80,12.5524206 80.4477931,13 81.0001069,13 C81.5524206,13 82,12.5524206 82,12.0001069 C82,11.4477931 81.5524206,11 81.0001069,11 L81.0001069,11 Z" id="Fill-6" stroke="none" fill="#FFFFFF" fill-rule="evenodd"></path>
    <path d="M80.1630511,12 L80.1630511,11.5710965 L80.5344063,11.5710965 C80.6011197,11.5710965 80.6498717,11.5772956 80.6813623,11.5895002 C80.7359459,11.6117784 80.7651038,11.6553661 80.768836,11.7208446 L80.7788663,11.8876404 C80.7809657,11.9267726 80.7839981,11.9529252 80.7870306,11.9666796 C80.7902962,11.9802402 80.794495,11.9912824 80.8000933,12 L81,12 L81,11.9775281 C80.9748076,11.9684231 80.9575461,11.9480821 80.947749,11.9163115 C80.9414509,11.8975203 80.9379519,11.8692367 80.9360858,11.831267 L80.9302543,11.6970167 C80.9279216,11.6388997 80.9143923,11.5970554 80.8905995,11.5710965 C80.8668066,11.5453313 80.8315839,11.5244091 80.7844647,11.5085238 C80.8381152,11.485277 80.8796361,11.4546687 80.9097271,11.4165052 C80.9393515,11.3785355 80.9542804,11.3295234 80.9542804,11.2694692 C80.9542804,11.1545912 80.8978307,11.0759396 80.7844647,11.0333204 C80.7249825,11.0110422 80.6491719,11 80.5574994,11 L80,11 L80,12 L80.1630511,12 Z M80.1630511,11.1164277 L80.5616982,11.1164277 C80.6172148,11.1164277 80.6617681,11.1232081 80.6951248,11.1367687 C80.7574061,11.1625339 80.7884301,11.2111585 80.7884301,11.2824487 C80.7884301,11.3487021 80.7662701,11.3946145 80.7219501,11.4199923 C80.6773968,11.44537 80.6167483,11.4581558 80.5402379,11.4581558 L80.1630511,11.4581558 L80.1630511,11.1164277 L80.1630511,11.1164277 Z" id="Fill-7" stroke="none" fill="#FFFFFF" fill-rule="evenodd"></path>
    <polyline id="Fill-8" stroke="none" fill="#DA332F" fill-rule="evenodd" points="2.35800326 14 0 16.3582137 13.6422071 30 16 27.6419967 2.35800326 14"></polyline>
    <g id="Group-12" stroke="none" stroke-width="1" fill="none" fill-rule="evenodd" transform="translate(3.000000, 0.000000)">
        <polyline id="Fill-9" fill="#38AB47" points="28.9936957 15.1482105 28.9936957 17.5555789 26.5904783 17.5555789 26.5904783 19.9631579 24.1876812 19.9631579 24.1876812 22.3703158 21.7844638 22.3703158 21.7844638 24.7778947 19.3814565 24.7778947 19.3814565 27.1852632 16.9782391 27.1852632 16.9782391 29.5926316 14.5750217 29.5926316 14.5750217 32 12.1724348 32 10.6825072 30.5075789 27.5037681 13.6555789 28.9936957 15.1482105"></polyline>
        <path d="M16.7414058,6.23894737 L18.4208841,4.55621053 L20.1020435,6.24042105 L18.4225652,7.92315789 L20.1049855,9.60863158 L21.7844638,7.92589474 L23.4670942,9.61157895 L21.7876159,11.2941053 L23.4694058,12.9789474 L25.1488841,11.2964211 L26.8308841,12.9814737 L13.0373913,26.8 L0.0886811594,13.828 C0.0575797101,13.464 0.125666667,13.0983158 0.285166667,12.7694737 C0.444456522,12.4410526 0.689905797,12.1616842 0.994826087,11.9614737 C1.29995652,11.7610526 1.65321014,11.6471579 2.01781159,11.6317895 C2.52384058,11.6101053 3.00360145,11.3989474 3.36168841,11.0402105 C3.71977536,10.6812632 3.93076087,10.2008421 3.95219565,9.69368421 C3.97363043,9.18673684 4.1844058,8.70610526 4.54249275,8.34715789 C4.90078986,7.98842105 5.38055072,7.77726316 5.88657971,7.75578947 C6.3926087,7.73410526 6.87236957,7.52315789 7.23066667,7.16421053 C7.58896377,6.80547368 7.79952899,6.32484211 7.82096377,5.81768421 C7.8426087,5.31052632 8.05317391,4.83010526 8.41147101,4.47115789 C8.76955797,4.11242105 9.24931884,3.90126316 9.75555797,3.87978947 C10.2617971,3.85831579 10.7411377,3.64715789 11.0994348,3.28842105 C11.4577319,2.92947368 11.6682971,2.44884211 11.689942,1.94189474 C11.7052826,1.57684211 11.8191812,1.22273684 12.019029,0.917052632 C12.219087,0.611578947 12.4979493,0.365894737 12.8257754,0.206105263 C13.1538116,0.0463157895 13.5186232,-0.0216842105 13.8823841,0.00947368421 L16.7403551,2.87263158 L15.061087,4.55536842 L16.7414058,6.23894737 L15.0560435,7.92694737 L13.3757246,6.24336842 L11.691413,7.93094737 L13.3717319,9.61452632 L11.6867899,11.3023158 L10.006471,9.61873684 L8.32089855,11.3075789 L10.0014275,12.9911579 L11.6867899,11.3023158 L13.3681594,12.9865263 L11.682587,14.6753684 L13.3647971,16.3608421 L15.0505797,14.672 L16.7332101,16.3576842 L15.0474275,18.0463158 L16.7292174,19.7313684 L18.415,18.0427368 L16.7332101,16.3576842 L18.4181522,14.6698947 L20.0997319,16.3547368 L21.7842536,14.6671579 L20.1024638,12.9823158 L18.4181522,14.6698947 L16.7355217,12.9842105 L15.0505797,14.672 L13.3681594,12.9865263 L15.0531014,11.2987368 L16.7355217,12.9842105 L18.4198333,11.2966316 L16.737413,9.61115789 L15.0531014,11.2987368 L13.3717319,9.61452632 L15.0560435,7.92694737 L20.1024638,12.9823158 L21.7876159,11.2941053 L20.1049855,9.60863158 L18.4198333,11.2966316 L16.737413,9.61115789 L18.4225652,7.92315789 L16.7414058,6.23894737" id="Fill-11" fill="#0B00FE"></path>
    </g>
</svg>
