<svg xmlns:xlink="http://www.w3.org/1999/xlink" width="14px" height="14px" viewBox="292 20 14 14" version="1.1" xmlns="http://www.w3.org/2000/svg">
    <!-- Generator: Sketch 41.2 (35397) - http://www.bohemiancoding.com/sketch -->
    <desc>Created with Sketch.</desc>
    <defs></defs>
    <g id="plus" stroke="none" stroke-width="1" fill="none" fill-rule="evenodd" transform="translate(292.000000, 20.000000)">
        <path d="M1.12444444,8 L12.9446914,8 C13.4969761,8 13.9446914,7.55228475 13.9446914,7 C13.9446914,6.44771525 13.4969761,6 12.9446914,6 L1.12444444,6 C0.572159695,6 0.124444444,6.44771525 0.124444444,7 C0.124444444,7.55228475 0.572159695,8 1.12444444,8 Z" id="Line" fill="#ffffff"></path>
        <path d="M8.07407407,12.968 L8.07407407,1 C8.07407407,0.44771525 7.62635882,0 7.07407407,0 C6.52178932,0 6.07407407,0.44771525 6.07407407,1 L6.07407407,12.968 C6.07407407,13.5202847 6.52178932,13.968 7.07407407,13.968 C7.62635882,13.968 8.07407407,13.5202847 8.07407407,12.968 Z" id="Line" fill="#ffffff"></path>
    </g>
</svg>
