<svg xmlns:xlink="http://www.w3.org/1999/xlink" width="240px" height="90px" viewBox="72 0 240 90" version="1.1" xmlns="http://www.w3.org/2000/svg">
    <!-- Generator: Sketch 41.2 (35397) - http://www.bohemiancoding.com/sketch -->
    <desc>Created with Sketch.</desc>
    <defs></defs>
    <g id="icons" stroke="none" stroke-width="1" fill="none" fill-rule="evenodd" transform="translate(72.000000, 0.000000)">
        <g id="tastatur" transform="translate(0.718844, 6.250497)" fill="#FFFFFF">

            <g id="unten" transform="translate(59.348236, 61.765085) rotate(-90.000000) translate(-59.348236, -61.765085) translate(42.848236, 44.265085)">
                <path d="M1,33.5946033 L31.8683266,33.5946033 L31.8683266,1 L1,1 L1,33.5946033 Z M-9.09494702e-13,0 L32.8683266,0 L32.8683266,34.5946033 L-9.09494702e-13,34.5946033 L-9.09494702e-13,0 Z" id="Rectangle-4"></path>
                <polygon id="Triangle-2" transform="translate(15.288083, 17.907835) rotate(-270.000000) translate(-15.288083, -17.907835) " points="15.2880828 21.4078347 9.28808284 14.4078347 21.2880828 14.4078347"></polygon>
            </g>
            <g id="oben" transform="translate(58.977739, 16.939938) rotate(-270.000000) translate(-58.977739, -16.939938) translate(42.477739, -0.560062)">
                <path d="M1,33.5946033 L31.8683266,33.5946033 L31.8683266,1 L1,1 L1,33.5946033 Z M-3.55271368e-15,0 L32.8683266,0 L32.8683266,34.5946033 L-3.55271368e-15,34.5946033 L-3.55271368e-15,0 Z" id="Rectangle-4"></path>
                <polygon id="Triangle-2" transform="translate(15.288083, 17.907835) rotate(-270.000000) translate(-15.288083, -17.907835) " points="15.2880828 21.4078347 9.28808284 14.4078347 21.2880828 14.4078347"></polygon>
            </g>
        </g>
        <g id="maus" transform="translate(164.741719, 0.710629)" fill="#FFFFFF">
            <polygon id="Path-3" points="0.296867354 35.4250826 53.1392563 35.4250826 53.1392563 34.4250826 0.296867354 34.4250826"></polygon>
            <polygon id="Path-3" points="27.2180618 34.9265103 27.2180618 1 26.2180618 1 26.2180618 34.9265103"></polygon>
            <path d="M1.09373471,27.1174501 C1.09373471,12.9682477 12.56404,1.5 26.7180618,1.5 C40.8688655,1.5 52.342389,12.9715053 52.342389,27.1174501 L52.342389,62.0295511 C52.342389,76.1787535 40.8720837,87.6470012 26.7180618,87.6470012 C12.5672582,87.6470012 1.09373471,76.1754959 1.09373471,62.0295511 L1.09373471,27.1174501 Z M0.0937347074,27.1174501 L0.0937347074,62.0295511 C0.0937347074,76.72782 12.0150128,88.6470012 26.7180618,88.6470012 C41.4243283,88.6470012 53.342389,76.7310784 53.342389,62.0295511 L53.342389,27.1174501 C53.342389,12.4191812 41.4211109,0.5 26.7180618,0.5 C12.0117954,0.5 0.0937347074,12.4159228 0.0937347074,27.1174501 Z" id="Rectangle-10"></path>
            <rect id="Rectangle-10" x="22.5619189" y="8.63950984" width="8.3122859" height="18.5045905" rx="4.15614295"></rect>
            <g id="PFEIL" transform="translate(65.478067, 25.559609)">
                <polygon id="Path-3-Copy" points="5.26660258 26.6621569 5.26660258 0.792245465 4.26660258 0.792245465 4.26660258 26.6621569"></polygon>
                <polygon id="Triangle-2" transform="translate(4.515729, 3.500000) rotate(-180.000000) translate(-4.515729, -3.500000) " points="4.51572876 7 0.420142167 1.77635684e-13 8.61131535 1.77635684e-13"></polygon>
                <polygon id="Triangle-2-Copy" transform="translate(4.515729, 26.605328) scale(1, -1) rotate(-180.000000) translate(-4.515729, -26.605328) " points="4.51572876 30.1053277 0.420142167 23.1053277 8.61131535 23.1053277"></polygon>
            </g>
        </g>
    </g>
</svg>
