<?xml version="1.0" encoding="UTF-8"?>
<svg xmlns:xlink="http://www.w3.org/1999/xlink" width="61px" height="61px" viewBox="0 0 61 61" version="1.1" xmlns="http://www.w3.org/2000/svg">
    <!-- Generator: Sketch 41.2 (35397) - http://www.bohemiancoding.com/sketch -->
    <title>escape-icon</title>
    <desc>Created with Sketch.</desc>
    <defs></defs>
    <g id="Reinlayout" stroke="none" stroke-width="1" fill="none" fill-rule="evenodd">
        <g id="06-tutorial-03" transform="translate(-570.000000, -175.000000)" fill="#FFFFFF">
            <g id="escape-icon" transform="translate(570.000000, 175.000000)">
                <path d="M20.84,20.992 L13.16,20.992 L13.16,37 L20.84,37 L20.84,36.04 L14.216,36.04 L14.216,28.72 L20.696,28.72 L20.696,27.76 L14.216,27.76 L14.216,21.952 L20.84,21.952 L20.84,20.992 Z M32.36,23.056 C31.544,21.544 30.08,20.776 28.472,20.776 C25.616,20.776 24.368,22.912 24.368,24.76 C24.368,25.384 24.512,25.984 24.872,26.584 C25.424,27.496 26.216,27.928 27.8,28.696 C29.12,29.344 30.056,29.824 30.512,30.088 C31.736,30.832 32.072,31.744 32.072,32.608 C32.072,34.72 30.368,36.304 28.208,36.304 C27.104,36.304 25.928,35.848 25.208,34.936 C24.968,34.648 24.56,34.024 24.344,33.4 L23.432,33.832 C23.576,34.24 23.84,34.864 24.464,35.584 C25.064,36.28 26.12,37.264 28.184,37.264 C30.92,37.264 33.176,35.272 33.176,32.584 C33.176,30.808 32.168,29.968 31.472,29.488 C30.656,28.912 29.864,28.576 28.28,27.808 C26.672,27.016 25.472,26.44 25.472,24.712 C25.472,23.104 26.552,21.736 28.448,21.736 C28.88,21.736 30.608,21.784 31.592,23.704 L32.36,23.056 Z M49.448,22.864 C48.968,22.408 47.12,20.776 44.072,20.776 C39.464,20.776 35.768,24.424 35.768,29.032 C35.768,33.496 39.32,37.264 44.12,37.264 C45.848,37.264 47.816,36.712 49.448,35.272 L49.448,33.88 C47.816,35.656 45.68,36.304 44.072,36.304 C40.832,36.304 36.872,33.832 36.872,29.08 C36.872,25.024 39.944,21.736 44.048,21.736 C46.112,21.736 48.08,22.648 49.448,24.256 L49.448,22.864 Z" id="ESC"></path>
                <path d="M59.5,1.5 L59.5,59.5 L1.5,59.5 L1.5,1.5 L59.5,1.5 Z M60.5,0.5 L0.5,0.5 L0.5,60.5 L60.5,60.5 L60.5,0.5 Z" id="Rectangle"></path>
            </g>
        </g>
    </g>
</svg>
